<svg version="1.1" xmlns="http://www.w3.org/2000/svg" x="0px" y="0px" viewBox="0 0 100 100" xml:space="preserve">
  <path fill="#07844b" d="M58.4,67.4h9.3c1.2,0.1,2.2-1,2.3-2.5c0-0.1,0-0.2,0-0.4V17.8c0.1-1.5-0.8-2.8-2-2.9c-0.1,0-0.2,0-0.3,0h-9.3
	c-1.2-0.1-2.2,1-2.3,2.5c0,0.1,0,0.2,0,0.4v46.7c-0.1,1.5,0.8,2.8,2,2.9C58.2,67.4,58.3,67.4,58.4,67.4z" />
  <path fill="#07844b" d="M79.3,67.4H84c1.2,0.1,2.2-1,2.3-2.5c0-0.1,0-0.2,0-0.4V17.8c0.1-1.5-0.8-2.8-2-2.9c-0.1,0-0.2,0-0.3,0h-4.7
	c-1.2-0.1-2.2,1-2.3,2.5c0,0.1,0,0.2,0,0.4v46.7c0,1.5,0.9,2.8,2.1,2.9C79.2,67.4,79.3,67.4,79.3,67.4z" />
  <path fill="#07844b" d="M47.7,67.4L47.7,67.4c1.2,0.2,2.3-0.9,2.4-2.4c0-0.1,0-0.3,0-0.4V17.8c0.1-1.5-0.8-2.8-2-2.9
	c-0.1,0-0.2,0-0.3,0h-0.1c-1.2-0.1-2.2,1-2.3,2.5c0,0.1,0,0.2,0,0.4v46.7c-0.1,1.4,0.7,2.7,1.9,2.9C47.5,67.4,47.6,67.4,47.7,67.4z" />
  <path fill="#07844b" d="M34.6,67.4h2.3c1.2,0.1,2.2-1,2.3-2.5c0-0.1,0-0.2,0-0.4V17.8c0.1-1.5-0.8-2.8-2-2.9c-0.1,0-0.2,0-0.3,0h-2.3
	c-1.2-0.1-2.2,1-2.3,2.5c0,0.1,0,0.2,0,0.4v46.7c-0.1,1.4,0.7,2.7,1.9,2.9C34.4,67.4,34.5,67.4,34.6,67.4z" />
  <path fill="#07844b" d="M14.6,67.4h9.3c1.2,0.1,2.2-1,2.3-2.5c0-0.1,0-0.2,0-0.4V17.8c0.1-1.5-0.8-2.8-2-2.9c-0.1,0-0.2,0-0.3,0h-9.3
	c-1.2-0.1-2.2,1-2.3,2.5c0,0.1,0,0.2,0,0.4v46.7c0,1.5,0.9,2.8,2.1,2.9C14.5,67.4,14.5,67.4,14.6,67.4z" />
</svg>
